<?xml version="1.0" encoding="UTF-8"?>
<svg xmlns="http://www.w3.org/2000/svg" xmlns:xlink="http://www.w3.org/1999/xlink" width="167px" height="58px" viewBox="0 0 155 58" version="1.1">
<g id="surface1">
<path style=" stroke:none;fill-rule:nonzero;fill:rgb(99.607843%,99.607843%,99.607843%);fill-opacity:1;" d="M 0 0 C 51.148438 0 102.300781 0 155 0 C 155 19.140625 155 38.28125 155 58 C 103.851562 58 52.699219 58 0 58 C 0 38.859375 0 19.71875 0 0 Z M 0 0 "/>
<path style=" stroke:none;fill-rule:nonzero;fill:rgb(1.176471%,7.450981%,25.490198%);fill-opacity:1;" d="M 41.476562 25.914062 C 43.964844 28.070312 45.941406 30.917969 46.230469 34.285156 C 46.304688 37.40625 45.570312 40.023438 43.632812 42.484375 C 43.5 42.65625 43.367188 42.832031 43.230469 43.011719 C 40.640625 46.207031 36.273438 48.355469 32.21875 48.84375 C 26.445312 49.25 21.164062 48.113281 16.660156 44.269531 C 14.230469 41.941406 12.71875 39.210938 12.550781 35.804688 C 12.492188 32.523438 13.523438 29.910156 15.726562 27.472656 C 15.921875 27.242188 15.921875 27.242188 16.121094 27.007812 C 22.585938 19.867188 34.269531 20.449219 41.476562 25.914062 Z M 41.476562 25.914062 "/>
<path style=" stroke:none;fill-rule:nonzero;fill:rgb(3.137255%,34.117648%,75.294119%);fill-opacity:1;" d="M 94.371094 22.640625 C 96.097656 22.621094 97.824219 22.597656 99.601562 22.578125 C 100.414062 22.5625 100.414062 22.5625 101.246094 22.546875 C 101.679688 22.546875 102.113281 22.542969 102.546875 22.539062 C 102.765625 22.535156 102.988281 22.53125 103.21875 22.523438 C 104.628906 22.523438 105.429688 22.710938 106.546875 23.65625 C 107.695312 24.949219 107.726562 26.078125 107.703125 27.726562 C 107.714844 28.0625 107.714844 28.0625 107.722656 28.402344 C 107.71875 29.515625 107.664062 30.300781 106.964844 31.195312 C 106.292969 31.796875 106.292969 31.796875 105.53125 31.796875 C 105.53125 31.964844 105.53125 32.132812 105.53125 32.308594 C 105.683594 32.332031 105.835938 32.359375 105.992188 32.386719 C 106.628906 32.585938 106.882812 32.816406 107.308594 33.324219 C 107.765625 34.242188 107.628906 35.304688 107.640625 36.3125 C 107.648438 36.542969 107.65625 36.769531 107.664062 37.003906 C 107.675781 38.449219 107.550781 39.328125 106.546875 40.449219 C 105.363281 41.410156 104.21875 41.308594 102.769531 41.285156 C 102.449219 41.285156 102.449219 41.285156 102.121094 41.28125 C 101.328125 41.277344 100.539062 41.269531 99.746094 41.257812 C 97.972656 41.242188 96.199219 41.226562 94.371094 41.210938 C 94.371094 35.082031 94.371094 28.953125 94.371094 22.640625 Z M 94.371094 22.640625 "/>
<path style=" stroke:none;fill-rule:nonzero;fill:rgb(97.647059%,98.039216%,98.431373%);fill-opacity:1;" d="M 29.933594 26.710938 C 29.933594 27.886719 29.933594 29.0625 29.933594 30.273438 C 30.351562 30.273438 30.773438 30.273438 31.203125 30.273438 C 31.902344 30.589844 31.902344 30.589844 32.613281 31.003906 C 32.851562 31.140625 33.085938 31.273438 33.328125 31.414062 C 33.546875 31.542969 33.765625 31.667969 33.992188 31.796875 C 34.332031 31.972656 34.667969 32.140625 35.007812 32.308594 C 35.09375 32.191406 35.179688 32.074219 35.269531 31.953125 C 36.203125 30.769531 37.125 30.003906 38.558594 29.507812 C 38.8125 29.507812 39.0625 29.507812 39.320312 29.507812 C 39.441406 31.382812 38.984375 32.949219 37.972656 34.53125 C 37.832031 34.804688 37.691406 35.078125 37.546875 35.359375 C 37.730469 35.992188 37.730469 35.992188 38.050781 36.632812 C 38.8125 38.34375 39.242188 39.835938 39.320312 41.71875 C 37.675781 41.5625 36.617188 40.886719 35.546875 39.652344 C 35.007812 38.921875 35.007812 38.921875 35.007812 38.414062 C 34.726562 38.597656 34.726562 38.597656 34.441406 38.785156 C 34.195312 38.945312 33.945312 39.105469 33.691406 39.269531 C 33.449219 39.429688 33.203125 39.589844 32.953125 39.753906 C 31.878906 40.394531 31.195312 40.703125 29.933594 40.703125 C 29.933594 41.792969 29.933594 42.882812 29.933594 44.007812 C 28.207031 43.71875 28.207031 43.71875 27.335938 43.039062 C 27.164062 42.910156 26.996094 42.785156 26.824219 42.652344 C 26.382812 42.226562 26.382812 42.226562 26.175781 41.707031 C 25.707031 40.929688 25.058594 40.875 24.210938 40.621094 C 21.675781 39.796875 19.835938 38.277344 18.265625 36.121094 C 18.140625 35.746094 18.140625 35.746094 18.011719 35.359375 C 19.347656 32.855469 21.5 31.296875 24.101562 30.273438 C 24.71875 30.113281 25.238281 30.046875 25.875 30.015625 C 25.953125 29.742188 25.953125 29.742188 26.035156 29.460938 C 26.679688 28.136719 28.394531 26.710938 29.933594 26.710938 Z M 29.933594 26.710938 "/>
<path style=" stroke:none;fill-rule:nonzero;fill:rgb(2.745098%,34.117648%,74.901962%);fill-opacity:1;" d="M 138.765625 22.640625 C 140.1875 22.640625 141.609375 22.640625 143.078125 22.640625 C 144.355469 27.101562 145.628906 31.566406 146.871094 36.039062 C 146.984375 36.445312 147.097656 36.851562 147.210938 37.257812 C 147.371094 37.824219 147.527344 38.394531 147.683594 38.960938 C 147.730469 39.132812 147.78125 39.300781 147.828125 39.476562 C 148.152344 40.644531 148.152344 40.644531 148.152344 41.210938 C 146.726562 41.210938 145.304688 41.210938 143.839844 41.210938 C 143.332031 39.683594 143.332031 39.683594 143.332031 38.667969 C 141.738281 38.667969 140.148438 38.667969 138.511719 38.667969 C 138.34375 39.507812 138.175781 40.34375 138.003906 41.210938 C 136.582031 41.210938 135.15625 41.210938 133.691406 41.210938 C 135.320312 35.003906 137.035156 28.820312 138.765625 22.640625 Z M 138.765625 22.640625 "/>
<path style=" stroke:none;fill-rule:nonzero;fill:rgb(2.745098%,34.117648%,74.901962%);fill-opacity:1;" d="M 74.226562 22.617188 C 74.605469 22.617188 74.980469 22.621094 75.359375 22.625 C 75.550781 22.625 75.746094 22.625 75.941406 22.628906 C 76.417969 22.632812 76.894531 22.636719 77.375 22.640625 C 78.101562 24.46875 78.625 26.339844 79.152344 28.234375 C 79.246094 28.574219 79.34375 28.917969 79.4375 29.261719 C 79.636719 29.972656 79.835938 30.6875 80.035156 31.402344 C 80.289062 32.316406 80.542969 33.230469 80.800781 34.144531 C 80.996094 34.851562 81.191406 35.554688 81.390625 36.261719 C 81.484375 36.601562 81.578125 36.9375 81.671875 37.273438 C 81.804688 37.742188 81.933594 38.214844 82.0625 38.683594 C 82.136719 38.953125 82.210938 39.21875 82.289062 39.496094 C 82.445312 40.191406 82.445312 40.191406 82.445312 41.210938 C 81.105469 41.210938 79.769531 41.210938 78.386719 41.210938 C 77.625 39.238281 77.625 39.238281 77.625 38.667969 C 76.035156 38.667969 74.445312 38.667969 72.808594 38.667969 C 72.722656 39.253906 72.640625 39.84375 72.554688 40.449219 C 72.46875 40.699219 72.386719 40.949219 72.300781 41.210938 C 70.960938 41.210938 69.621094 41.210938 68.242188 41.210938 C 68.628906 39.101562 69.164062 37.042969 69.730469 34.976562 C 69.828125 34.628906 69.921875 34.277344 70.019531 33.929688 C 70.214844 33.203125 70.414062 32.476562 70.613281 31.75 C 70.871094 30.816406 71.125 29.886719 71.378906 28.953125 C 71.574219 28.234375 71.773438 27.515625 71.96875 26.796875 C 72.0625 26.453125 72.15625 26.109375 72.25 25.765625 C 72.378906 25.285156 72.511719 24.808594 72.644531 24.332031 C 72.71875 24.058594 72.792969 23.789062 72.871094 23.507812 C 73.167969 22.550781 73.160156 22.644531 74.226562 22.617188 Z M 74.226562 22.617188 "/>
<path style=" stroke:none;fill-rule:nonzero;fill:rgb(1.568628%,7.843138%,25.882354%);fill-opacity:1;" d="M 14.476562 14.910156 C 14.878906 14.902344 14.878906 14.902344 15.285156 14.898438 C 15.578125 14.902344 15.867188 14.902344 16.167969 14.902344 C 16.628906 14.898438 16.628906 14.898438 17.101562 14.894531 C 17.945312 14.890625 18.785156 14.890625 19.628906 14.890625 C 20.335938 14.890625 21.039062 14.886719 21.742188 14.886719 C 23.402344 14.878906 25.066406 14.878906 26.726562 14.882812 C 28.441406 14.882812 30.15625 14.878906 31.867188 14.867188 C 33.339844 14.859375 34.8125 14.855469 36.28125 14.859375 C 37.160156 14.859375 38.039062 14.855469 38.917969 14.851562 C 39.898438 14.84375 40.878906 14.847656 41.859375 14.851562 C 42.296875 14.847656 42.296875 14.847656 42.738281 14.84375 C 44.703125 14.863281 44.703125 14.863281 45.714844 15.605469 C 46.171875 16.28125 46.171875 16.28125 46.328125 17.042969 C 46.109375 18.09375 45.746094 18.425781 44.902344 19.078125 C 44.140625 19.242188 43.40625 19.210938 42.628906 19.175781 C 42.40625 19.167969 42.183594 19.164062 41.957031 19.160156 C 41.246094 19.140625 40.539062 19.109375 39.828125 19.078125 C 39.601562 19.070312 39.371094 19.0625 39.136719 19.050781 C 37.53125 18.992188 35.929688 18.910156 34.328125 18.824219 C 33.625 18.789062 32.921875 18.75 32.21875 18.714844 C 31.789062 18.695312 31.355469 18.671875 30.925781 18.648438 C 30.34375 18.617188 29.757812 18.59375 29.171875 18.570312 C 28.859375 18.554688 28.859375 18.554688 28.539062 18.539062 C 28.332031 18.53125 28.128906 18.527344 27.917969 18.519531 C 27.640625 18.507812 27.640625 18.507812 27.359375 18.496094 C 26.792969 18.53125 26.792969 18.53125 26.351562 19.269531 C 26.195312 19.542969 26.039062 19.816406 25.875 20.097656 C 24.308594 21.398438 22.542969 21.269531 20.59375 21.246094 C 20.042969 21.242188 19.488281 21.246094 18.9375 21.253906 C 16.746094 21.257812 15.351562 21.160156 13.707031 19.632812 C 13.53125 19.414062 13.53125 19.414062 13.351562 19.191406 C 13.167969 18.96875 13.167969 18.96875 12.980469 18.742188 C 12.328125 17.800781 12.351562 16.882812 12.429688 15.773438 C 13.011719 14.949219 13.507812 14.914062 14.476562 14.910156 Z M 14.476562 14.910156 "/>
<path style=" stroke:none;fill-rule:nonzero;fill:rgb(3.529412%,34.509805%,75.294119%);fill-opacity:1;" d="M 60.882812 22.640625 C 62.308594 22.640625 63.730469 22.640625 65.195312 22.640625 C 65.21875 24.738281 65.238281 26.832031 65.25 28.929688 C 65.253906 29.902344 65.261719 30.875 65.273438 31.851562 C 65.285156 32.789062 65.289062 33.730469 65.292969 34.671875 C 65.292969 35.027344 65.296875 35.386719 65.304688 35.746094 C 65.3125 36.246094 65.3125 36.75 65.3125 37.253906 C 65.3125 37.539062 65.316406 37.824219 65.320312 38.121094 C 65.132812 39.347656 64.550781 40.15625 63.589844 40.917969 C 62.222656 41.511719 60.714844 41.339844 59.25 41.335938 C 58.753906 41.347656 58.753906 41.347656 58.242188 41.359375 C 55.523438 41.363281 55.523438 41.363281 54.597656 40.628906 C 53.8125 39.664062 53.460938 39.015625 53.476562 37.765625 C 53.480469 37.550781 53.480469 37.335938 53.480469 37.113281 C 53.488281 36.890625 53.492188 36.667969 53.496094 36.441406 C 53.496094 36.214844 53.5 35.988281 53.503906 35.757812 C 53.507812 35.199219 53.515625 34.644531 53.527344 34.085938 C 54.949219 34.085938 56.375 34.085938 57.839844 34.085938 C 57.839844 35.09375 57.839844 36.101562 57.839844 37.140625 C 58.84375 37.140625 59.847656 37.140625 60.882812 37.140625 C 60.882812 32.355469 60.882812 27.570312 60.882812 22.640625 Z M 60.882812 22.640625 "/>
<path style=" stroke:none;fill-rule:nonzero;fill:rgb(2.745098%,34.117648%,74.901962%);fill-opacity:1;" d="M 119.230469 22.640625 C 123.582031 22.640625 127.9375 22.640625 132.421875 22.640625 C 132.421875 24.066406 132.421875 25.496094 132.421875 26.964844 C 130.914062 26.964844 129.410156 26.964844 127.855469 26.964844 C 127.855469 31.664062 127.855469 36.367188 127.855469 41.210938 C 126.515625 41.210938 125.175781 41.210938 123.796875 41.210938 C 123.796875 36.507812 123.796875 31.808594 123.796875 26.964844 C 122.289062 26.964844 120.785156 26.964844 119.230469 26.964844 C 119.230469 25.539062 119.230469 24.109375 119.230469 22.640625 Z M 119.230469 22.640625 "/>
<path style=" stroke:none;fill-rule:nonzero;fill:rgb(4.313726%,34.901962%,75.294119%);fill-opacity:1;" d="M 111.113281 22.640625 C 112.535156 22.640625 113.960938 22.640625 115.425781 22.640625 C 115.425781 28.851562 115.425781 35.066406 115.425781 41.464844 C 114.003906 41.464844 112.578125 41.464844 111.113281 41.464844 C 111.113281 35.253906 111.113281 29.039062 111.113281 22.640625 Z M 111.113281 22.640625 "/>
<path style=" stroke:none;fill-rule:nonzero;fill:rgb(1.960784%,33.333334%,74.901962%);fill-opacity:1;" d="M 86.503906 22.640625 C 87.84375 22.640625 89.183594 22.640625 90.566406 22.640625 C 90.566406 28.769531 90.566406 34.898438 90.566406 41.210938 C 89.226562 41.210938 87.886719 41.210938 86.503906 41.210938 C 86.503906 35.082031 86.503906 28.953125 86.503906 22.640625 Z M 86.503906 22.640625 "/>
<path style=" stroke:none;fill-rule:nonzero;fill:rgb(94.509804%,96.470588%,98.431373%);fill-opacity:1;" d="M 98.683594 34.085938 C 99.347656 34.074219 100.015625 34.0625 100.679688 34.054688 C 100.871094 34.050781 101.058594 34.046875 101.253906 34.042969 C 101.75 34.039062 102.246094 34.0625 102.742188 34.085938 C 103.25 34.597656 103.25 34.597656 103.316406 35.074219 C 103.316406 35.25 103.3125 35.429688 103.3125 35.613281 C 103.3125 35.792969 103.316406 35.972656 103.316406 36.15625 C 103.25 36.632812 103.25 36.632812 102.742188 37.140625 C 102.046875 37.175781 101.375 37.1875 100.679688 37.171875 C 100.488281 37.167969 100.296875 37.167969 100.101562 37.164062 C 99.628906 37.160156 99.15625 37.148438 98.683594 37.140625 C 98.683594 36.132812 98.683594 35.125 98.683594 34.085938 Z M 98.683594 34.085938 "/>
<path style=" stroke:none;fill-rule:nonzero;fill:rgb(98.431373%,98.823529%,99.607843%);fill-opacity:1;" d="M 98.683594 26.964844 C 99.347656 26.953125 100.015625 26.941406 100.679688 26.933594 C 100.871094 26.929688 101.058594 26.925781 101.253906 26.921875 C 101.75 26.914062 102.246094 26.9375 102.742188 26.964844 C 103.25 27.472656 103.25 27.472656 103.308594 27.960938 C 103.277344 29.480469 103.277344 29.480469 102.996094 29.761719 C 102.269531 29.78125 101.550781 29.785156 100.824219 29.777344 C 100.617188 29.777344 100.414062 29.777344 100.203125 29.777344 C 99.695312 29.773438 99.1875 29.769531 98.683594 29.761719 C 98.683594 28.839844 98.683594 27.917969 98.683594 26.964844 Z M 98.683594 26.964844 "/>
<path style=" stroke:none;fill-rule:nonzero;fill:rgb(3.529412%,9.411765%,27.450982%);fill-opacity:1;" d="M 25.875 32.308594 C 26.398438 32.417969 26.398438 32.417969 26.890625 32.5625 C 27.191406 33.640625 27.191406 34.65625 27.191406 35.773438 C 27.195312 35.96875 27.199219 36.167969 27.199219 36.371094 C 27.203125 36.882812 27.175781 37.394531 27.144531 37.902344 C 26.636719 38.414062 26.636719 38.414062 25.621094 38.414062 C 25.613281 37.441406 25.609375 36.472656 25.605469 35.503906 C 25.605469 35.226562 25.601562 34.949219 25.601562 34.664062 C 25.597656 34.402344 25.597656 34.136719 25.597656 33.867188 C 25.597656 33.621094 25.59375 33.378906 25.59375 33.128906 C 25.621094 32.5625 25.621094 32.5625 25.875 32.308594 Z M 25.875 32.308594 "/>
<path style=" stroke:none;fill-rule:nonzero;fill:rgb(87.843138%,91.764706%,96.862745%);fill-opacity:1;" d="M 140.792969 30.527344 C 141.238281 31.195312 141.46875 31.6875 141.714844 32.433594 C 141.78125 32.632812 141.84375 32.828125 141.914062 33.03125 C 142.0625 33.578125 142.0625 33.578125 142.0625 34.34375 C 141.308594 34.34375 140.554688 34.34375 139.777344 34.34375 C 140.269531 31.65625 140.269531 31.65625 140.792969 30.527344 Z M 140.792969 30.527344 "/>
<path style=" stroke:none;fill-rule:nonzero;fill:rgb(91.764706%,94.509804%,97.647059%);fill-opacity:1;" d="M 75.089844 30.78125 C 75.257812 30.863281 75.425781 30.949219 75.597656 31.035156 C 75.757812 31.585938 75.890625 32.144531 76.007812 32.703125 C 76.074219 33.007812 76.140625 33.3125 76.210938 33.628906 C 76.257812 33.863281 76.308594 34.097656 76.359375 34.34375 C 75.6875 34.34375 75.019531 34.34375 74.328125 34.34375 C 74.460938 33.078125 74.640625 31.980469 75.089844 30.78125 Z M 75.089844 30.78125 "/>
<path style=" stroke:none;fill-rule:nonzero;fill:rgb(9.019608%,14.901961%,31.37255%);fill-opacity:1;" d="M 22.71875 33.308594 C 23.027344 33.316406 23.027344 33.316406 23.339844 33.324219 C 23.496094 33.929688 23.496094 33.929688 23.59375 34.597656 C 23.425781 34.765625 23.257812 34.933594 23.085938 35.105469 C 22.546875 35.011719 22.546875 35.011719 22.070312 34.851562 C 21.972656 34.429688 21.890625 34.003906 21.816406 33.578125 C 22.070312 33.324219 22.070312 33.324219 22.71875 33.308594 Z M 22.71875 33.308594 "/>
</g>
</svg>
