<?xml version="1.0" encoding="UTF-8"?>
<svg xmlns="http://www.w3.org/2000/svg" xmlns:xlink="http://www.w3.org/1999/xlink" width="167px" height="58px" viewBox="0 0 174 58" version="1.1">
<g id="surface1">
<path style=" stroke:none;fill-rule:nonzero;fill:rgb(0%,0%,0%);fill-opacity:1;" d="M 0 28.964844 L 0 57.929688 L 174 57.929688 L 174 0 L 0 0 Z M 45.761719 7.5 C 46.894531 8.03125 47.496094 9.667969 47 10.804688 C 46.1875 12.546875 45.796875 12.582031 34.445312 11.976562 L 23.90625 11.40625 L 22.742188 12.792969 C 21.113281 14.714844 19.804688 15.03125 14.289062 14.855469 C 10.785156 14.75 9.441406 14.570312 8.558594 14.109375 C 6.507812 13.007812 5.128906 9.773438 5.976562 7.960938 L 6.367188 7.109375 L 25.605469 7.109375 C 39.257812 7.109375 45.125 7.214844 45.761719 7.5 Z M 34.835938 16.917969 C 42.015625 19.582031 46.578125 24.84375 46.964844 31.0625 C 47.460938 38.914062 41.945312 45.453125 32.714844 48.011719 C 30.34375 48.652344 29.28125 48.761719 25.5 48.582031 C 20.796875 48.40625 19.167969 48.011719 15.03125 45.988281 C 12.164062 44.566406 8.875 41.226562 7.390625 38.167969 C 6.257812 35.894531 6.1875 35.503906 6.1875 32.164062 C 6.1875 28.894531 6.296875 28.429688 7.320312 26.191406 C 9.476562 21.644531 14.324219 17.949219 20.230469 16.347656 C 22.316406 15.78125 23.660156 15.671875 27.410156 15.742188 C 31.441406 15.886719 32.359375 16.027344 34.835938 16.917969 Z M 69.671875 24.949219 C 69.671875 30.207031 69.492188 34.507812 69.28125 35.289062 C 68.785156 37.066406 66.769531 39.304688 65.179688 39.839844 C 62.101562 40.835938 57.753906 39.839844 56.410156 37.8125 C 55.84375 36.925781 55.84375 36.855469 56.621094 36.035156 C 57.609375 34.96875 57.753906 34.96875 58.917969 36.074219 C 60.617188 37.671875 63.90625 37.707031 65.390625 36.109375 C 66.523438 34.898438 66.839844 32.128906 66.839844 23.527344 L 66.839844 15.992188 L 69.671875 15.992188 Z M 90.289062 27.683594 C 93.152344 34.117188 95.488281 39.484375 95.488281 39.589844 C 95.488281 39.734375 94.746094 39.804688 93.859375 39.734375 L 92.234375 39.625 L 91.171875 37.03125 L 90.078125 34.472656 L 77.769531 34.472656 L 76.566406 37.136719 L 75.363281 39.804688 L 72.183594 39.804688 L 72.816406 38.277344 C 73.949219 35.679688 82.472656 16.527344 82.648438 16.242188 C 82.722656 16.097656 83.320312 15.992188 83.957031 15.992188 L 85.089844 15.992188 Z M 101.144531 27.898438 L 101.144531 39.804688 L 97.964844 39.804688 L 97.964844 15.992188 L 101.144531 15.992188 Z M 116.847656 17.058594 C 118.933594 18.160156 119.890625 19.722656 119.890625 22.175781 C 119.890625 23.738281 119.75 24.058594 118.40625 25.410156 L 116.882812 26.902344 L 118.121094 27.472656 C 121.058594 28.859375 122.332031 33.121094 120.773438 36.25 C 119.324219 39.058594 117.167969 39.804688 110.128906 39.804688 L 104.683594 39.804688 L 104.683594 28.148438 C 104.683594 21.714844 104.789062 16.347656 104.964844 16.207031 C 105.105469 16.027344 107.441406 15.992188 110.164062 16.0625 C 114.65625 16.171875 115.328125 16.277344 116.847656 17.058594 Z M 127.316406 27.898438 L 127.316406 39.804688 L 124.488281 39.804688 L 124.488281 15.992188 L 127.316406 15.992188 Z M 146.699219 17.484375 L 146.589844 19.011719 L 143.335938 19.121094 L 140.046875 19.226562 L 140.046875 39.804688 L 137.21875 39.804688 L 137.21875 19.191406 L 130.5 19.191406 L 130.5 15.992188 L 146.804688 15.992188 Z M 166.253906 27.1875 C 168.976562 33.265625 171.3125 38.558594 171.523438 38.988281 C 171.84375 39.769531 171.808594 39.804688 170.179688 39.804688 L 168.519531 39.804688 L 167.421875 37.210938 L 166.324219 34.652344 L 160.136719 34.542969 L 153.949219 34.472656 L 152.78125 37.136719 L 151.613281 39.804688 L 150.058594 39.804688 C 148.679688 39.804688 148.5 39.734375 148.714844 39.164062 C 148.820312 38.84375 151.1875 33.476562 153.914062 27.257812 L 158.933594 15.957031 L 160.136719 16.0625 L 161.375 16.171875 Z M 166.253906 27.1875 "/>
<path style=" stroke:none;fill-rule:nonzero;fill:rgb(0%,0%,0%);fill-opacity:1;" d="M 24.898438 22.710938 C 24.261719 23.101562 23.339844 23.953125 22.8125 24.664062 C 22.28125 25.375 21.574219 25.945312 21.21875 25.945312 C 19.875 25.945312 16.269531 28.183594 14.535156 30.066406 C 12.484375 32.339844 12.484375 32.449219 15.03125 35.042969 C 16.550781 36.570312 19.132812 38.0625 20.972656 38.523438 C 21.503906 38.632812 22.703125 39.554688 23.625 40.515625 C 24.648438 41.582031 25.640625 42.292969 26.101562 42.292969 C 26.808594 42.292969 26.878906 42.113281 26.878906 40.515625 C 26.878906 38.878906 26.949219 38.738281 27.867188 38.523438 C 28.824219 38.277344 31.511719 36.960938 32.570312 36.214844 C 33.03125 35.859375 33.386719 36.074219 34.515625 37.246094 C 35.257812 38.0625 36.496094 38.988281 37.242188 39.269531 L 38.621094 39.839844 L 38.371094 38.3125 C 38.230469 37.457031 37.664062 35.789062 37.132812 34.542969 L 36.109375 32.339844 L 36.78125 31.167969 C 37.488281 29.960938 38.726562 25.660156 38.441406 25.375 C 38.054688 24.949219 35.257812 26.511719 34.304688 27.683594 C 33.386719 28.785156 33.136719 28.894531 32.605469 28.503906 C 32.289062 28.253906 30.839844 27.507812 29.460938 26.796875 L 26.878906 25.550781 L 26.878906 23.8125 C 26.878906 21.820312 26.59375 21.679688 24.898438 22.710938 Z M 23.730469 29.390625 C 24.261719 30.777344 23.941406 35.113281 23.234375 35.824219 C 22.140625 36.890625 21.75 35.894531 21.820312 32.09375 C 21.855469 30.171875 21.890625 28.574219 21.890625 28.503906 C 21.925781 28.46875 22.246094 28.429688 22.632812 28.429688 C 23.09375 28.429688 23.484375 28.785156 23.730469 29.390625 Z M 19.453125 30.527344 C 19.453125 31.699219 18.671875 32.164062 17.648438 31.628906 C 16.445312 30.953125 16.976562 29.496094 18.425781 29.496094 C 19.308594 29.496094 19.453125 29.640625 19.453125 30.527344 Z M 19.453125 30.527344 "/>
<path style=" stroke:none;fill-rule:nonzero;fill:rgb(0%,0%,0%);fill-opacity:1;" d="M 82.898438 22.601562 C 82.402344 23.738281 81.304688 26.261719 80.457031 28.148438 L 78.9375 31.628906 L 88.769531 31.628906 L 88.273438 30.457031 C 86.539062 26.371094 84.066406 20.753906 83.957031 20.648438 C 83.886719 20.578125 83.394531 21.429688 82.898438 22.601562 Z M 82.898438 22.601562 "/>
<path style=" stroke:none;fill-rule:nonzero;fill:rgb(0%,0%,0%);fill-opacity:1;" d="M 107.867188 22.390625 L 107.867188 26.050781 L 110.976562 25.871094 C 112.816406 25.765625 114.515625 25.445312 115.1875 25.125 C 117.238281 24.058594 117.414062 21.179688 115.539062 19.761719 C 114.761719 19.191406 113.878906 19.011719 111.226562 18.90625 L 107.867188 18.765625 Z M 107.867188 22.390625 "/>
<path style=" stroke:none;fill-rule:nonzero;fill:rgb(0%,0%,0%);fill-opacity:1;" d="M 107.867188 32.945312 L 107.867188 37.421875 L 111.542969 37.210938 C 115.1875 36.996094 116.8125 36.535156 117.734375 35.433594 C 118.476562 34.507812 118.582031 32.589844 117.980469 31.167969 C 117.167969 29.175781 115.292969 28.429688 111.15625 28.429688 L 107.867188 28.429688 Z M 107.867188 32.945312 "/>
<path style=" stroke:none;fill-rule:nonzero;fill:rgb(0%,0%,0%);fill-opacity:1;" d="M 157.765625 25.660156 C 156.527344 28.46875 155.46875 30.953125 155.363281 31.167969 C 155.222656 31.523438 156.28125 31.628906 159.996094 31.628906 C 162.648438 31.628906 164.804688 31.523438 164.804688 31.382812 C 164.804688 31.0625 160.492188 21.21875 160.207031 20.863281 C 160.101562 20.71875 158.96875 22.886719 157.765625 25.660156 Z M 157.765625 25.660156 "/>
</g>
</svg>
